<?xml version="1.0" encoding="utf-8"?>
<!-- Generator: Adobe Illustrator 17.0.0, SVG Export Plug-In . SVG Version: 6.00 Build 0)  -->
<!DOCTYPE svg PUBLIC "-//W3C//DTD SVG 1.1//EN" "http://www.w3.org/Graphics/SVG/1.1/DTD/svg11.dtd">
<svg version="1.1" id="Слой_1" xmlns="http://www.w3.org/2000/svg" xmlns:xlink="http://www.w3.org/1999/xlink" x="0px" y="0px"
	 width="19.703px" height="20.262px" viewBox="0 0 19.703 20.262" enable-background="new 0 0 19.703 20.262" xml:space="preserve">
<g>
	<path fill="#BFB3AC" d="M9.852,1.453c5.407,0,9.79,3.536,9.79,7.898c0,1.741-0.7,3.349-1.883,4.655l1.819,4.523l-7.71-1.55
		c-0.806,0.022-1.708,0.217-2.612,0.241c-0.102,0.003-0.205,0.004-0.306,0.004c-5.242,0-8.889-3.593-8.889-7.872
		C0.061,4.99,4.444,1.453,9.852,1.453 M9.852,3.595c-4.218,0-7.649,2.582-7.649,5.757c0,3.267,2.901,5.731,6.748,5.731
		c0.083,0,0.166-0.001,0.249-0.003c0.361-0.01,0.757-0.059,1.175-0.111c0.463-0.057,0.941-0.117,1.435-0.13l0.242-0.007l0.238,0.048
		l3.82,0.768l-0.339-0.842l-0.5-1.244l0.9-0.994c0.606-0.668,1.328-1.769,1.328-3.216C17.5,6.177,14.069,3.595,9.852,3.595
		L9.852,3.595z"/>
</g>
</svg>
