<?xml version="1.0" encoding="utf-8"?>
<!-- Generator: Adobe Illustrator 17.0.0, SVG Export Plug-In . SVG Version: 6.00 Build 0)  -->
<!DOCTYPE svg PUBLIC "-//W3C//DTD SVG 1.1//EN" "http://www.w3.org/Graphics/SVG/1.1/DTD/svg11.dtd">
<svg version="1.1" id="Слой_1" xmlns="http://www.w3.org/2000/svg" xmlns:xlink="http://www.w3.org/1999/xlink" x="0px" y="0px"
	 width="21.568px" height="20.262px" viewBox="0 0 21.568 20.262" enable-background="new 0 0 21.568 20.262" xml:space="preserve">
<g>
	<path fill="#BFB3AC" d="M20.498,13.226L5.43,13.226v-0.743l13.839-1.832c0.74-0.119,1.25-0.701,1.271-1.45V4.634
		c-0.003-0.763-0.615-1.374-1.377-1.377H5.43V2.212C5.426,1.28,4.68,0.534,3.747,0.529H1.07C0.479,0.529,0,1.009,0,1.6
		c0,0.591,0.479,1.071,1.07,1.071h2.218v11.014c0.004,0.932,0.75,1.679,1.683,1.682h15.527c0.591,0,1.07-0.479,1.07-1.07
		C21.568,13.706,21.089,13.226,20.498,13.226z M11.455,10.142l-2.63,0.348V4.788h2.63V10.142z M12.679,4.788h2.63v4.844l-2.63,0.348
		V4.788z M19.009,9.142L16.532,9.47V4.788h2.477V9.142z M7.601,4.788v5.865L5.43,10.94V4.788H7.601z"/>
	<circle fill="#BFB3AC" cx="8.158" cy="17.688" r="2.116"/>
	<circle fill="#BFB3AC" cx="18.356" cy="17.688" r="2.116"/>
</g>
</svg>
