<?xml version="1.0" encoding="utf-8"?>
<!-- Generator: Adobe Illustrator 17.0.0, SVG Export Plug-In . SVG Version: 6.00 Build 0)  -->
<!DOCTYPE svg PUBLIC "-//W3C//DTD SVG 1.1//EN" "http://www.w3.org/Graphics/SVG/1.1/DTD/svg11.dtd">
<svg version="1.1" id="Слой_1" xmlns="http://www.w3.org/2000/svg" xmlns:xlink="http://www.w3.org/1999/xlink" x="0px" y="0px"
	 width="19.703px" height="20.167px" viewBox="0 0 19.703 20.167" enable-background="new 0 0 19.703 20.167" xml:space="preserve">
<g>
	<path fill="#BFB3AC" d="M14.348,1.418c0.277,0,0.571,0.015,0.887,0.046c1.918,0.187,4.136,1.943,4.407,5.309v1.12
		c-0.252,3.221-2.684,7.194-9.79,12.179c-7.107-4.985-9.538-8.958-9.79-12.179v-1.12c0.27-3.365,2.488-5.122,4.406-5.309
		c0.315-0.031,0.61-0.046,0.887-0.046c2.216,0,3.28,0.958,4.497,2.408C11.069,2.376,12.131,1.418,14.348,1.418 M14.348,3.56
		c-1.273,0-1.805,0.39-2.856,1.643l-1.64,1.955L8.211,5.203C7.159,3.95,6.628,3.56,5.355,3.56c-0.209,0-0.437,0.012-0.679,0.036
		c-0.885,0.086-2.263,1.029-2.473,3.27v0.937c0.261,2.813,2.832,6.049,7.648,9.629c4.817-3.581,7.388-6.816,7.648-9.629V6.865
		c-0.21-2.24-1.588-3.183-2.473-3.27C14.785,3.572,14.556,3.56,14.348,3.56L14.348,3.56z"/>
</g>
</svg>
