<?xml version="1.0" encoding="utf-8"?>
<!-- Generator: Adobe Illustrator 17.0.0, SVG Export Plug-In . SVG Version: 6.00 Build 0)  -->
<!DOCTYPE svg PUBLIC "-//W3C//DTD SVG 1.1//EN" "http://www.w3.org/Graphics/SVG/1.1/DTD/svg11.dtd">
<svg version="1.1" id="Слой_1" xmlns="http://www.w3.org/2000/svg" xmlns:xlink="http://www.w3.org/1999/xlink" x="0px" y="0px"
	 width="53.55px" height="61.403px" viewBox="0 0 53.55 61.403" enable-background="new 0 0 53.55 61.403" xml:space="preserve">
<g>
	<defs>
		<circle id="SVGID_1_" cx="26.847" cy="30.64" r="24.581"/>
	</defs>
	<use xlink:href="#SVGID_1_"  overflow="visible" fill="#FFFFFF"/>
	<clipPath id="SVGID_2_">
		<use xlink:href="#SVGID_1_"  overflow="visible"/>
	</clipPath>
	<g clip-path="url(#SVGID_2_)">
		<g>
			<g>
				<circle fill="#FFFFFF" cx="20.062" cy="9.582" r="26.444"/>
				<path fill="#D50202" d="M20.062,37.286c-15.276,0-27.704-12.428-27.704-27.704S4.786-18.122,20.062-18.122
					S47.767-5.694,47.767,9.582S35.338,37.286,20.062,37.286z M20.062-15.603C6.175-15.603-5.123-4.305-5.123,9.582
					S6.175,34.767,20.062,34.767c13.887,0,25.185-11.298,25.185-25.185S33.949-15.603,20.062-15.603z"/>
			</g>
			<g>
				<circle fill="#FFFFFF" cx="20.062" cy="9.582" r="23.198"/>
				<path fill="#D50202" d="M20.062,33.5C6.874,33.5-3.855,22.771-3.855,9.582S6.874-14.336,20.062-14.336S43.98-3.606,43.98,9.582
					S33.25,33.5,20.062,33.5z M20.062-12.896C7.667-12.896-2.416-2.813-2.416,9.582S7.667,32.061,20.062,32.061
					S42.541,21.977,42.541,9.582S32.457-12.896,20.062-12.896z"/>
			</g>
			<g>
				<circle fill="#FFFFFF" cx="20.062" cy="9.582" r="20.493"/>
				<path fill="#D50202" d="M20.062,30.795C8.365,30.795-1.15,21.279-1.15,9.582s9.516-21.213,21.212-21.213
					S41.275-2.115,41.275,9.582S31.759,30.795,20.062,30.795z M20.062-10.191c-10.903,0-19.773,8.871-19.773,19.773
					s8.87,19.773,19.773,19.773s19.773-8.871,19.773-19.773S30.965-10.191,20.062-10.191z"/>
			</g>
			<g>
				<circle fill="#FFFFFF" cx="20.062" cy="9.582" r="17.904"/>
				<path fill="#D50202" d="M20.062,28.206c-10.269,0-18.624-8.354-18.624-18.624S9.793-9.042,20.062-9.042
					c10.27,0,18.624,8.354,18.624,18.624S30.332,28.206,20.062,28.206z M20.062-7.602c-9.475,0-17.184,7.709-17.184,17.184
					s7.709,17.184,17.184,17.184c9.476,0,17.185-7.709,17.185-17.184S29.538-7.602,20.062-7.602z"/>
			</g>
			<g>
				<circle fill="#FFFFFF" cx="20.062" cy="9.582" r="15.155"/>
				<path fill="#D50202" d="M20.062,25.457c-8.753,0-15.875-7.121-15.875-15.875S11.309-6.292,20.062-6.292
					S35.937,0.829,35.937,9.582S28.815,25.457,20.062,25.457z M20.062-4.853c-7.959,0-14.435,6.476-14.435,14.435
					s6.476,14.435,14.435,14.435s14.436-6.476,14.436-14.435S28.021-4.853,20.062-4.853z"/>
			</g>
			<g>
				<circle fill="#FFFFFF" cx="20.062" cy="9.582" r="15.155"/>
				<path fill="#D50202" d="M20.062,25.457c-8.753,0-15.875-7.121-15.875-15.875S11.309-6.292,20.062-6.292
					S35.937,0.829,35.937,9.582S28.815,25.457,20.062,25.457z M20.062-4.853c-7.959,0-14.435,6.476-14.435,14.435
					s6.476,14.435,14.435,14.435s14.436-6.476,14.436-14.435S28.021-4.853,20.062-4.853z"/>
			</g>
			<g>
				<circle fill="#FFFFFF" cx="20.062" cy="9.582" r="12.578"/>
				<path fill="#D50202" d="M20.062,22.879c-7.332,0-13.297-5.965-13.297-13.297S12.73-3.715,20.062-3.715
					c7.333,0,13.297,5.965,13.297,13.297S27.395,22.879,20.062,22.879z M20.062-2.276c-6.538,0-11.857,5.319-11.857,11.858
					S13.524,21.44,20.062,21.44c6.539,0,11.858-5.319,11.858-11.858S26.601-2.276,20.062-2.276z"/>
			</g>
			<g>
				<circle fill="#FFFFFF" cx="20.062" cy="9.582" r="9.973"/>
				<path fill="#D50202" d="M20.062,20.275c-5.896,0-10.692-4.797-10.692-10.693S14.166-1.11,20.062-1.11S30.755,3.686,30.755,9.582
					S25.958,20.275,20.062,20.275z M20.062,0.329c-5.102,0-9.253,4.151-9.253,9.253s4.151,9.253,9.253,9.253
					s9.253-4.151,9.253-9.253S25.164,0.329,20.062,0.329z"/>
			</g>
			<g>
				<circle fill="#FFFFFF" cx="20.062" cy="9.582" r="7.406"/>
				<path fill="#D50202" d="M20.062,17.708c-4.481,0-8.126-3.646-8.126-8.126s3.645-8.126,8.126-8.126s8.126,3.645,8.126,8.126
					S24.543,17.708,20.062,17.708z M20.062,2.896c-3.687,0-6.687,3-6.687,6.687s3,6.687,6.687,6.687s6.687-3,6.687-6.687
					S23.749,2.896,20.062,2.896z"/>
			</g>
			<g>
				<circle fill="#FFFFFF" cx="20.062" cy="9.582" r="4.964"/>
				<path fill="#D50202" d="M20.062,15.265c-3.134,0-5.683-2.549-5.683-5.683s2.549-5.683,5.683-5.683
					c3.134,0,5.684,2.549,5.684,5.683S23.196,15.265,20.062,15.265z M20.062,5.338c-2.34,0-4.244,1.904-4.244,4.244
					s1.904,4.244,4.244,4.244c2.34,0,4.244-1.904,4.244-4.244S22.402,5.338,20.062,5.338z"/>
			</g>
			<g>
				<circle fill="#FFFFFF" cx="20.062" cy="9.582" r="2.63"/>
				<path fill="#D50202" d="M20.062,12.932c-1.847,0-3.35-1.502-3.35-3.35s1.502-3.35,3.35-3.35s3.35,1.502,3.35,3.35
					S21.909,12.932,20.062,12.932z M20.062,7.672c-1.053,0-1.91,0.857-1.91,1.91s0.857,1.91,1.91,1.91s1.911-0.857,1.911-1.91
					S21.115,7.672,20.062,7.672z"/>
			</g>
			<g>
				<circle fill="#FFFFFF" cx="20.062" cy="9.582" r="0.349"/>
				<path fill="#D50202" d="M20.062,10.651c-0.589,0-1.069-0.479-1.069-1.069s0.479-1.069,1.069-1.069
					c0.59,0,1.069,0.479,1.069,1.069S20.652,10.651,20.062,10.651z M20.062,9.211c-0.204,0-0.37,0.166-0.37,0.371
					s0.166,0.371,0.37,0.371c0.205,0,0.371-0.166,0.371-0.371S20.267,9.211,20.062,9.211z"/>
			</g>
		</g>
		<g>
			<g>
				<circle fill="#FFFFFF" cx="49.219" cy="24.7" r="26.444"/>
				<path fill="#D50202" d="M49.219,52.404c-15.276,0-27.704-12.428-27.704-27.704S33.942-3.004,49.219-3.004
					S76.923,9.424,76.923,24.7S64.495,52.404,49.219,52.404z M49.219-0.484c-13.887,0-25.185,11.298-25.185,25.185
					s11.298,25.185,25.185,25.185S74.403,38.587,74.403,24.7S63.105-0.484,49.219-0.484z"/>
			</g>
			<g>
				<circle fill="#FFFFFF" cx="49.219" cy="24.7" r="23.198"/>
				<path fill="#D50202" d="M49.219,48.618c-13.188,0-23.917-10.729-23.917-23.918S36.03,0.783,49.219,0.783
					S73.137,11.512,73.137,24.7S62.407,48.618,49.219,48.618z M49.219,2.222c-12.395,0-22.478,10.083-22.478,22.478
					s10.083,22.479,22.478,22.479S71.697,37.095,71.697,24.7S61.613,2.222,49.219,2.222z"/>
			</g>
			<g>
				<circle fill="#FFFFFF" cx="49.219" cy="24.7" r="20.493"/>
				<path fill="#D50202" d="M49.219,45.913c-11.697,0-21.212-9.516-21.212-21.213S37.522,3.488,49.219,3.488
					S70.432,13.003,70.432,24.7S60.916,45.913,49.219,45.913z M49.219,4.927c-10.903,0-19.773,8.87-19.773,19.773
					s8.87,19.773,19.773,19.773S68.992,35.603,68.992,24.7S60.122,4.927,49.219,4.927z"/>
			</g>
			<g>
				<circle fill="#FFFFFF" cx="49.219" cy="24.7" r="17.904"/>
				<path fill="#D50202" d="M49.219,43.324c-10.269,0-18.624-8.354-18.624-18.624c0-10.269,8.354-18.624,18.624-18.624
					c10.27,0,18.624,8.354,18.624,18.624C67.843,34.97,59.488,43.324,49.219,43.324z M49.219,7.516
					c-9.475,0-17.184,7.709-17.184,17.184c0,9.476,7.709,17.185,17.184,17.185c9.476,0,17.185-7.709,17.185-17.185
					C66.403,15.225,58.694,7.516,49.219,7.516z"/>
			</g>
			<g>
				<circle fill="#FFFFFF" cx="49.219" cy="24.7" r="15.155"/>
				<path fill="#D50202" d="M49.219,40.575c-8.753,0-15.875-7.121-15.875-15.875S40.465,8.826,49.219,8.826
					S65.094,15.947,65.094,24.7S57.972,40.575,49.219,40.575z M49.219,10.265c-7.959,0-14.435,6.476-14.435,14.435
					s6.476,14.435,14.435,14.435S63.654,32.66,63.654,24.7S57.178,10.265,49.219,10.265z"/>
			</g>
			<g>
				<circle fill="#FFFFFF" cx="49.219" cy="24.7" r="15.155"/>
				<path fill="#D50202" d="M49.219,40.575c-8.753,0-15.875-7.121-15.875-15.875S40.465,8.826,49.219,8.826
					S65.094,15.947,65.094,24.7S57.972,40.575,49.219,40.575z M49.219,10.265c-7.959,0-14.435,6.476-14.435,14.435
					s6.476,14.435,14.435,14.435S63.654,32.66,63.654,24.7S57.178,10.265,49.219,10.265z"/>
			</g>
			<g>
				<circle fill="#FFFFFF" cx="49.219" cy="24.7" r="12.578"/>
				<path fill="#D50202" d="M49.219,37.998c-7.332,0-13.297-5.965-13.297-13.297s5.965-13.297,13.297-13.297
					c7.333,0,13.297,5.965,13.297,13.297S56.551,37.998,49.219,37.998z M49.219,12.842c-6.538,0-11.857,5.319-11.857,11.858
					s5.319,11.858,11.857,11.858c6.539,0,11.858-5.319,11.858-11.858S55.757,12.842,49.219,12.842z"/>
			</g>
			<g>
				<circle fill="#FFFFFF" cx="49.219" cy="24.7" r="9.973"/>
				<path fill="#D50202" d="M49.219,35.393c-5.896,0-10.692-4.797-10.692-10.693s4.796-10.692,10.692-10.692
					S59.912,18.804,59.912,24.7S55.115,35.393,49.219,35.393z M49.219,15.447c-5.102,0-9.253,4.151-9.253,9.253
					s4.151,9.253,9.253,9.253s9.253-4.151,9.253-9.253S54.321,15.447,49.219,15.447z"/>
			</g>
			<g>
				<circle fill="#FFFFFF" cx="49.219" cy="24.7" r="7.406"/>
				<path fill="#D50202" d="M49.219,32.827c-4.481,0-8.126-3.646-8.126-8.126s3.645-8.126,8.126-8.126s8.126,3.645,8.126,8.126
					S53.7,32.827,49.219,32.827z M49.219,18.014c-3.687,0-6.687,3-6.687,6.687s3,6.687,6.687,6.687s6.687-3,6.687-6.687
					S52.906,18.014,49.219,18.014z"/>
			</g>
			<g>
				<circle fill="#FFFFFF" cx="49.219" cy="24.7" r="4.964"/>
				<path fill="#D50202" d="M49.219,30.384c-3.134,0-5.683-2.549-5.683-5.684c0-3.134,2.549-5.683,5.683-5.683
					c3.134,0,5.684,2.549,5.684,5.683C54.902,27.834,52.353,30.384,49.219,30.384z M49.219,20.457c-2.34,0-4.244,1.904-4.244,4.244
					c0,2.34,1.904,4.244,4.244,4.244c2.34,0,4.244-1.904,4.244-4.244C53.463,22.36,51.559,20.457,49.219,20.457z"/>
			</g>
			<g>
				<circle fill="#FFFFFF" cx="49.219" cy="24.7" r="2.63"/>
				<path fill="#D50202" d="M49.219,28.05c-1.847,0-3.35-1.503-3.35-3.35s1.502-3.35,3.35-3.35s3.35,1.502,3.35,3.35
					S51.066,28.05,49.219,28.05z M49.219,22.79c-1.053,0-1.91,0.857-1.91,1.91s0.857,1.911,1.91,1.911s1.911-0.857,1.911-1.911
					S50.272,22.79,49.219,22.79z"/>
			</g>
			<g>
				<circle fill="#FFFFFF" cx="49.219" cy="24.7" r="0.349"/>
				<path fill="#D50202" d="M49.219,25.77c-0.589,0-1.069-0.479-1.069-1.069c0-0.589,0.479-1.069,1.069-1.069
					c0.59,0,1.069,0.479,1.069,1.069C50.288,25.29,49.809,25.77,49.219,25.77z M49.219,24.33c-0.204,0-0.37,0.166-0.37,0.37
					c0,0.205,0.166,0.371,0.37,0.371c0.205,0,0.371-0.166,0.371-0.371C49.589,24.496,49.423,24.33,49.219,24.33z"/>
			</g>
		</g>
		<g>
			<g>
				<circle fill="#FFFFFF" cx="4.404" cy="36.579" r="26.444"/>
				<path fill="#D50202" d="M4.404,64.283c-15.276,0-27.704-12.428-27.704-27.704S-10.873,8.875,4.404,8.875
					s27.705,12.428,27.705,27.704S19.68,64.283,4.404,64.283z M4.404,11.395c-13.887,0-25.185,11.298-25.185,25.185
					S-9.483,61.764,4.404,61.764c13.887,0,25.185-11.298,25.185-25.185S18.291,11.395,4.404,11.395z"/>
			</g>
			<g>
				<circle fill="#FFFFFF" cx="4.404" cy="36.579" r="23.198"/>
				<path fill="#D50202" d="M4.404,60.497c-13.188,0-23.917-10.729-23.917-23.918S-8.785,12.661,4.404,12.661
					s23.918,10.729,23.918,23.918S17.592,60.497,4.404,60.497z M4.404,14.101c-12.395,0-22.478,10.084-22.478,22.479
					S-7.991,59.058,4.404,59.058s22.479-10.084,22.479-22.479S16.798,14.101,4.404,14.101z"/>
			</g>
			<g>
				<circle fill="#FFFFFF" cx="4.404" cy="36.579" r="20.493"/>
				<path fill="#D50202" d="M4.404,57.792c-11.697,0-21.212-9.516-21.212-21.213s9.516-21.213,21.212-21.213
					s21.213,9.516,21.213,21.213S16.101,57.792,4.404,57.792z M4.404,16.806c-10.903,0-19.773,8.871-19.773,19.773
					s8.87,19.773,19.773,19.773s19.773-8.871,19.773-19.773S15.307,16.806,4.404,16.806z"/>
			</g>
			<g>
				<circle fill="#FFFFFF" cx="4.404" cy="36.579" r="17.904"/>
				<path fill="#D50202" d="M4.404,55.203c-10.269,0-18.624-8.354-18.624-18.624s8.354-18.624,18.624-18.624
					c10.27,0,18.624,8.354,18.624,18.624S14.673,55.203,4.404,55.203z M4.404,19.395c-9.475,0-17.184,7.709-17.184,17.184
					s7.709,17.184,17.184,17.184c9.476,0,17.185-7.709,17.185-17.184S13.879,19.395,4.404,19.395z"/>
			</g>
			<g>
				<circle fill="#FFFFFF" cx="4.404" cy="36.579" r="15.155"/>
				<path fill="#D50202" d="M4.404,52.454c-8.753,0-15.875-7.121-15.875-15.875S-4.35,20.705,4.404,20.705
					s15.875,7.121,15.875,15.875S13.157,52.454,4.404,52.454z M4.404,22.144c-7.959,0-14.435,6.476-14.435,14.435
					s6.476,14.435,14.435,14.435s14.435-6.476,14.435-14.435S12.363,22.144,4.404,22.144z"/>
			</g>
			<g>
				<circle fill="#FFFFFF" cx="4.404" cy="36.579" r="15.155"/>
				<path fill="#D50202" d="M4.404,52.454c-8.753,0-15.875-7.121-15.875-15.875S-4.35,20.705,4.404,20.705
					s15.875,7.121,15.875,15.875S13.157,52.454,4.404,52.454z M4.404,22.144c-7.959,0-14.435,6.476-14.435,14.435
					s6.476,14.435,14.435,14.435s14.435-6.476,14.435-14.435S12.363,22.144,4.404,22.144z"/>
			</g>
			<g>
				<circle fill="#FFFFFF" cx="4.404" cy="36.579" r="12.578"/>
				<path fill="#D50202" d="M4.404,49.876c-7.333,0-13.297-5.965-13.297-13.297s5.965-13.297,13.297-13.297
					s13.297,5.965,13.297,13.297S11.736,49.876,4.404,49.876z M4.404,24.721c-6.539,0-11.858,5.319-11.858,11.858
					s5.319,11.858,11.858,11.858s11.858-5.319,11.858-11.858S10.942,24.721,4.404,24.721z"/>
			</g>
			<g>
				<circle fill="#FFFFFF" cx="4.404" cy="36.579" r="9.973"/>
				<path fill="#D50202" d="M4.404,47.271c-5.896,0-10.692-4.796-10.692-10.692s4.796-10.693,10.692-10.693
					s10.693,4.797,10.693,10.693S10.3,47.271,4.404,47.271z M4.404,27.326c-5.102,0-9.253,4.151-9.253,9.253
					s4.151,9.253,9.253,9.253s9.253-4.151,9.253-9.253S9.506,27.326,4.404,27.326z"/>
			</g>
			<g>
				<circle fill="#FFFFFF" cx="4.404" cy="36.579" r="7.406"/>
				<path fill="#D50202" d="M4.404,44.705c-4.481,0-8.126-3.645-8.126-8.126s3.645-8.126,8.126-8.126s8.126,3.646,8.126,8.126
					S8.885,44.705,4.404,44.705z M4.404,29.892c-3.687,0-6.687,3-6.687,6.687s3,6.687,6.687,6.687s6.687-3,6.687-6.687
					S8.091,29.892,4.404,29.892z"/>
			</g>
			<g>
				<circle fill="#FFFFFF" cx="4.404" cy="36.579" r="4.963"/>
				<path fill="#D50202" d="M4.404,42.262c-3.134,0-5.683-2.549-5.683-5.683s2.549-5.683,5.683-5.683
					c3.134,0,5.684,2.549,5.684,5.683S7.538,42.262,4.404,42.262z M4.404,32.335c-2.34,0-4.244,1.904-4.244,4.244
					s1.904,4.244,4.244,4.244c2.34,0,4.244-1.904,4.244-4.244S6.744,32.335,4.404,32.335z"/>
			</g>
			<g>
				<circle fill="#FFFFFF" cx="4.404" cy="36.579" r="2.63"/>
				<path fill="#D50202" d="M4.404,39.929c-1.847,0-3.35-1.502-3.35-3.35s1.502-3.35,3.35-3.35s3.35,1.502,3.35,3.35
					S6.251,39.929,4.404,39.929z M4.404,34.669c-1.053,0-1.91,0.857-1.91,1.91s0.857,1.91,1.91,1.91s1.91-0.857,1.91-1.91
					S5.457,34.669,4.404,34.669z"/>
			</g>
			<g>
				<circle fill="#FFFFFF" cx="4.404" cy="36.579" r="0.349"/>
				<path fill="#D50202" d="M4.404,37.648c-0.589,0-1.069-0.479-1.069-1.069s0.479-1.069,1.069-1.069
					c0.59,0,1.069,0.479,1.069,1.069S4.994,37.648,4.404,37.648z M4.404,36.208c-0.204,0-0.37,0.166-0.37,0.371
					S4.2,36.95,4.404,36.95c0.205,0,0.371-0.166,0.371-0.371S4.608,36.208,4.404,36.208z"/>
			</g>
		</g>
		<g>
			<g>
				<circle fill="#FFFFFF" cx="33.741" cy="49.178" r="26.444"/>
				<path fill="#D50202" d="M33.741,76.882c-15.276,0-27.704-12.428-27.704-27.704s12.428-27.704,27.704-27.704
					s27.704,12.428,27.704,27.704S49.017,76.882,33.741,76.882z M33.741,23.993c-13.887,0-25.185,11.298-25.185,25.185
					s11.298,25.185,25.185,25.185s25.185-11.298,25.185-25.185S47.627,23.993,33.741,23.993z"/>
			</g>
			<g>
				<circle fill="#FFFFFF" cx="33.741" cy="49.178" r="23.198"/>
				<path fill="#D50202" d="M33.741,73.096c-13.188,0-23.918-10.729-23.918-23.918S20.552,25.26,33.741,25.26
					s23.918,10.729,23.918,23.918S46.929,73.096,33.741,73.096z M33.741,26.699c-12.395,0-22.479,10.084-22.479,22.479
					s10.084,22.478,22.479,22.478s22.479-10.083,22.479-22.478S46.135,26.699,33.741,26.699z"/>
			</g>
			<g>
				<circle fill="#FFFFFF" cx="33.741" cy="49.178" r="20.493"/>
				<path fill="#D50202" d="M33.741,70.391c-11.697,0-21.213-9.516-21.213-21.213s9.516-21.213,21.213-21.213
					s21.213,9.516,21.213,21.213S45.438,70.391,33.741,70.391z M33.741,29.404c-10.903,0-19.773,8.871-19.773,19.773
					s8.871,19.773,19.773,19.773s19.773-8.871,19.773-19.773S44.644,29.404,33.741,29.404z"/>
			</g>
			<g>
				<circle fill="#FFFFFF" cx="33.741" cy="49.178" r="17.904"/>
				<path fill="#D50202" d="M33.741,67.801c-10.269,0-18.624-8.354-18.624-18.624c0-10.27,8.354-18.624,18.624-18.624
					s18.624,8.354,18.624,18.624C52.364,59.447,44.01,67.801,33.741,67.801z M33.741,31.993c-9.475,0-17.184,7.709-17.184,17.185
					c0,9.475,7.709,17.184,17.184,17.184s17.184-7.709,17.184-17.184C50.925,39.702,43.216,31.993,33.741,31.993z"/>
			</g>
			<g>
				<circle fill="#FFFFFF" cx="33.741" cy="49.178" r="15.155"/>
				<path fill="#D50202" d="M33.741,65.052c-8.753,0-15.875-7.121-15.875-15.875s7.121-15.875,15.875-15.875
					s15.875,7.121,15.875,15.875S42.494,65.052,33.741,65.052z M33.741,34.743c-7.959,0-14.435,6.476-14.435,14.435
					s6.476,14.435,14.435,14.435s14.435-6.476,14.435-14.435S41.7,34.743,33.741,34.743z"/>
			</g>
			<g>
				<circle fill="#FFFFFF" cx="33.741" cy="49.178" r="15.155"/>
				<path fill="#D50202" d="M33.741,65.052c-8.753,0-15.875-7.121-15.875-15.875s7.121-15.875,15.875-15.875
					s15.875,7.121,15.875,15.875S42.494,65.052,33.741,65.052z M33.741,34.743c-7.959,0-14.435,6.476-14.435,14.435
					s6.476,14.435,14.435,14.435s14.435-6.476,14.435-14.435S41.7,34.743,33.741,34.743z"/>
			</g>
			<g>
				<circle fill="#FFFFFF" cx="33.741" cy="49.178" r="12.578"/>
				<path fill="#D50202" d="M33.741,62.475c-7.333,0-13.297-5.965-13.297-13.297S26.408,35.88,33.741,35.88
					s13.297,5.965,13.297,13.297S41.073,62.475,33.741,62.475z M33.741,37.32c-6.539,0-11.858,5.319-11.858,11.858
					s5.319,11.858,11.858,11.858s11.858-5.319,11.858-11.858S40.279,37.32,33.741,37.32z"/>
			</g>
			<g>
				<circle fill="#FFFFFF" cx="33.741" cy="49.178" r="9.973"/>
				<path fill="#D50202" d="M33.741,59.87c-5.896,0-10.693-4.796-10.693-10.692s4.797-10.693,10.693-10.693
					s10.692,4.797,10.692,10.693S39.637,59.87,33.741,59.87z M33.741,39.924c-5.102,0-9.253,4.151-9.253,9.253
					s4.151,9.253,9.253,9.253s9.253-4.151,9.253-9.253S38.843,39.924,33.741,39.924z"/>
			</g>
			<g>
				<circle fill="#FFFFFF" cx="33.741" cy="49.178" r="7.406"/>
				<path fill="#D50202" d="M33.741,57.304c-4.481,0-8.126-3.645-8.126-8.126s3.646-8.126,8.126-8.126s8.126,3.646,8.126,8.126
					S38.222,57.304,33.741,57.304z M33.741,42.491c-3.687,0-6.687,3-6.687,6.687s3,6.687,6.687,6.687s6.687-3,6.687-6.687
					S37.428,42.491,33.741,42.491z"/>
			</g>
			<g>
				<circle fill="#FFFFFF" cx="33.741" cy="49.178" r="4.964"/>
				<path fill="#D50202" d="M33.741,54.861c-3.134,0-5.683-2.549-5.683-5.683s2.549-5.683,5.683-5.683s5.683,2.549,5.683,5.683
					S36.875,54.861,33.741,54.861z M33.741,44.934c-2.34,0-4.244,1.904-4.244,4.244s1.904,4.244,4.244,4.244
					s4.244-1.904,4.244-4.244S36.081,44.934,33.741,44.934z"/>
			</g>
			<g>
				<circle fill="#FFFFFF" cx="33.741" cy="49.178" r="2.63"/>
				<path fill="#D50202" d="M33.741,52.527c-1.847,0-3.35-1.502-3.35-3.35s1.502-3.35,3.35-3.35s3.35,1.502,3.35,3.35
					S35.588,52.527,33.741,52.527z M33.741,47.268c-1.053,0-1.91,0.857-1.91,1.91s0.857,1.91,1.91,1.91s1.91-0.857,1.91-1.91
					S34.794,47.268,33.741,47.268z"/>
			</g>
			<g>
				<circle fill="#FFFFFF" cx="33.741" cy="49.178" r="0.349"/>
				<path fill="#D50202" d="M33.741,50.247c-0.589,0-1.069-0.479-1.069-1.069c0-0.59,0.479-1.069,1.069-1.069
					s1.069,0.479,1.069,1.069C34.81,49.767,34.33,50.247,33.741,50.247z M33.741,48.807c-0.205,0-0.371,0.166-0.371,0.371
					c0,0.204,0.166,0.37,0.371,0.37s0.371-0.166,0.371-0.37C34.111,48.973,33.945,48.807,33.741,48.807z"/>
			</g>
		</g>
		<g>
			<g>
				<circle fill="#FFFFFF" cx="4.404" cy="64.296" r="26.444"/>
				<path fill="#D50202" d="M4.404,92C-10.873,92-23.3,79.572-23.3,64.296s12.428-27.704,27.704-27.704S32.108,49.02,32.108,64.296
					S19.68,92,4.404,92z M4.404,39.111c-13.887,0-25.185,11.298-25.185,25.185S-9.483,89.48,4.404,89.48
					c13.887,0,25.185-11.298,25.185-25.185S18.291,39.111,4.404,39.111z"/>
			</g>
			<g>
				<circle fill="#FFFFFF" cx="4.404" cy="64.296" r="23.198"/>
				<path fill="#D50202" d="M4.404,88.214c-13.188,0-23.917-10.729-23.917-23.918S-8.785,40.378,4.404,40.378
					s23.918,10.729,23.918,23.918S17.592,88.214,4.404,88.214z M4.404,41.817c-12.395,0-22.478,10.084-22.478,22.479
					S-7.991,86.774,4.404,86.774S26.882,76.69,26.882,64.296S16.798,41.817,4.404,41.817z"/>
			</g>
			<g>
				<circle fill="#FFFFFF" cx="4.404" cy="64.296" r="20.493"/>
				<path fill="#D50202" d="M4.404,85.509c-11.697,0-21.212-9.516-21.212-21.213c0-11.697,9.516-21.213,21.212-21.213
					s21.213,9.516,21.213,21.213C25.617,75.993,16.101,85.509,4.404,85.509z M4.404,44.522c-10.903,0-19.773,8.871-19.773,19.773
					c0,10.903,8.87,19.773,19.773,19.773s19.773-8.87,19.773-19.773C24.177,53.393,15.307,44.522,4.404,44.522z"/>
			</g>
			<g>
				<circle fill="#FFFFFF" cx="4.404" cy="64.296" r="17.904"/>
				<path fill="#D50202" d="M4.404,82.92c-10.269,0-18.624-8.354-18.624-18.624c0-10.269,8.354-18.624,18.624-18.624
					c10.27,0,18.624,8.354,18.624,18.624C23.028,74.565,14.673,82.92,4.404,82.92z M4.404,47.112
					c-9.475,0-17.184,7.709-17.184,17.184c0,9.476,7.709,17.185,17.184,17.185c9.476,0,17.185-7.709,17.185-17.185
					C21.588,54.821,13.879,47.112,4.404,47.112z"/>
			</g>
			<g>
				<circle fill="#FFFFFF" cx="4.404" cy="64.296" r="15.155"/>
				<path fill="#D50202" d="M4.404,80.171c-8.753,0-15.875-7.121-15.875-15.875c0-8.753,7.121-15.875,15.875-15.875
					s15.875,7.121,15.875,15.875C20.278,73.05,13.157,80.171,4.404,80.171z M4.404,49.861c-7.959,0-14.435,6.476-14.435,14.435
					s6.476,14.436,14.435,14.436s14.435-6.476,14.435-14.436S12.363,49.861,4.404,49.861z"/>
			</g>
			<g>
				<circle fill="#FFFFFF" cx="4.404" cy="64.296" r="15.155"/>
				<path fill="#D50202" d="M4.404,80.171c-8.753,0-15.875-7.121-15.875-15.875c0-8.753,7.121-15.875,15.875-15.875
					s15.875,7.121,15.875,15.875C20.278,73.05,13.157,80.171,4.404,80.171z M4.404,49.861c-7.959,0-14.435,6.476-14.435,14.435
					s6.476,14.436,14.435,14.436s14.435-6.476,14.435-14.436S12.363,49.861,4.404,49.861z"/>
			</g>
			<g>
				<circle fill="#FFFFFF" cx="4.404" cy="64.296" r="12.578"/>
				<path fill="#D50202" d="M4.404,77.593c-7.333,0-13.297-5.965-13.297-13.297c0-7.333,5.965-13.297,13.297-13.297
					s13.297,5.965,13.297,13.297C17.701,71.628,11.736,77.593,4.404,77.593z M4.404,52.438c-6.539,0-11.858,5.319-11.858,11.858
					c0,6.538,5.319,11.857,11.858,11.857s11.858-5.319,11.858-11.857C16.262,57.757,10.942,52.438,4.404,52.438z"/>
			</g>
			<g>
				<circle fill="#FFFFFF" cx="4.404" cy="64.296" r="9.973"/>
				<path fill="#D50202" d="M4.404,74.988c-5.896,0-10.692-4.796-10.692-10.692s4.796-10.693,10.692-10.693
					S15.097,58.4,15.097,64.296S10.3,74.988,4.404,74.988z M4.404,55.042c-5.102,0-9.253,4.151-9.253,9.253s4.151,9.253,9.253,9.253
					s9.253-4.151,9.253-9.253S9.506,55.042,4.404,55.042z"/>
			</g>
			<g>
				<circle fill="#FFFFFF" cx="4.404" cy="64.296" r="7.406"/>
				<path fill="#D50202" d="M4.404,72.422c-4.481,0-8.126-3.645-8.126-8.126s3.645-8.126,8.126-8.126s8.126,3.646,8.126,8.126
					S8.885,72.422,4.404,72.422z M4.404,57.609c-3.687,0-6.687,3-6.687,6.687s3,6.687,6.687,6.687s6.687-3,6.687-6.687
					S8.091,57.609,4.404,57.609z"/>
			</g>
			<g>
				<circle fill="#FFFFFF" cx="4.404" cy="64.296" r="4.963"/>
				<path fill="#D50202" d="M4.404,69.979c-3.134,0-5.683-2.549-5.683-5.683s2.549-5.683,5.683-5.683
					c3.134,0,5.684,2.549,5.684,5.683S7.538,69.979,4.404,69.979z M4.404,60.052c-2.34,0-4.244,1.904-4.244,4.244
					s1.904,4.244,4.244,4.244c2.34,0,4.244-1.904,4.244-4.244S6.744,60.052,4.404,60.052z"/>
			</g>
			<g>
				<circle fill="#FFFFFF" cx="4.404" cy="64.296" r="2.63"/>
				<path fill="#D50202" d="M4.404,67.646c-1.847,0-3.35-1.502-3.35-3.35s1.502-3.35,3.35-3.35s3.35,1.502,3.35,3.35
					S6.251,67.646,4.404,67.646z M4.404,62.386c-1.053,0-1.91,0.857-1.91,1.91s0.857,1.91,1.91,1.91s1.91-0.857,1.91-1.91
					S5.457,62.386,4.404,62.386z"/>
			</g>
		</g>
	</g>
</g>
<path fill="#D50202" d="M26.847,56.721c-14.381,0-26.082-11.7-26.082-26.082s11.7-26.082,26.082-26.082s26.082,11.7,26.082,26.082
	S41.229,56.721,26.847,56.721z M26.847,7.558C14.12,7.558,3.766,17.913,3.766,30.64S14.12,53.721,26.847,53.721
	S49.929,43.367,49.929,30.64S39.574,7.558,26.847,7.558z"/>
<g>
	<path fill="#FFFFFF" d="M36.941,25.748l-1.594-0.835c-1.675-0.877-3.147-1.918-4.416-3.121c-0.224,1.589-1.462,2.318-2.62,2.318
		c-0.484,0-1.691-0.163-2.444-1.667l-0.045-0.098c-0.268-0.616-0.667-1.167-1.207-1.665c-2.061,2.176-4.627,3.794-7.653,4.822
		l-0.313,0.106h-0.33c-1.366,0-1.931-0.92-2.071-1.202c-0.141-0.282-0.535-1.287,0.288-2.377l0.313-0.415l0.475-0.21
		c4.562-2.017,7.25-5.221,8.169-9.757h-8.33V7.087h8.714V0.425l4.326,0.764l0.331,0.208c1.388,0.872,1.265,2.091,1.194,2.443
		c-0.074,0.368-0.249,0.788-0.633,1.145v2.102h4.574l2.036-2.036l3.261,2.408c1.054,0.881,1.054,1.844,0.96,2.34
		c-0.074,0.389-0.379,1.338-1.612,1.749l-0.307,0.102h-7.503c1.519,4.218,4.245,6.938,8.28,8.283l5.504,1.834l-5.465,1.947
		c-0.436,0.155-0.757,0.352-0.881,0.538L36.941,25.748z"/>
	<path fill="#FFFFFF" d="M28.874,40.237c-1.126,0-2.09-0.663-2.514-1.729c-0.326-0.791-0.967-1.674-1.898-2.604
		c-0.658-0.657-1.65-1.319-2.947-1.968l-0.212-0.123c-0.769-0.51-1.018-1.252-0.997-1.87c-0.543,0.431-1.099,0.518-1.457,0.518
		c-0.931,0-1.67-0.559-2.634-1.524c-0.947-0.948-1.427-1.959-1.427-3.005c0-1.468,1.09-2.26,2.115-2.26
		c0.61,0,1.172,0.252,1.671,0.749l0.163,0.162c0.613-0.014,1.157-0.064,1.626-0.15c3.42-0.61,7.602-1.078,12.443-1.394
		c0.012-0.014,0.024-0.028,0.036-0.043l1.092-1.365l1.499,0.899c0.401,0.241,0.953,0.651,1.735,1.29
		c0.668,0.574,1.391,1.331,1.391,2.392c0,0.823-0.547,2.201-2.569,2.278c-1.479,1.493-3.266,2.916-5.323,4.239
		c0.451,0.799,0.678,1.627,0.678,2.478C31.342,40.152,29.126,40.237,28.874,40.237z M25.004,30.55
		c0.764,0.282,1.454,0.583,2.078,0.906c0.641-0.473,1.25-0.958,1.827-1.453C27.538,30.153,26.234,30.336,25.004,30.55z"/>
	<path fill="#FFFFFF" d="M21.787,61.422h-0.409c-1.394,0-1.969-0.853-2.152-1.219c-0.375-0.751-0.273-1.633,0.273-2.358l0.268-0.355
		l0.393-0.208c3.823-2.027,6.783-4.871,8.977-8.644c-4.36,0.434-5.883,0.667-6.411,0.773c-0.647,0.471-1.275,0.582-1.722,0.582
		c-1.006,0-1.869-0.652-2.651-1.358c-1.242-1.102-1.504-2.232-1.504-2.984c0-1.468,1.09-2.26,2.116-2.26
		c0.381,0,0.744,0.099,1.084,0.294c-1.01-0.945-1.513-1.98-1.513-3.094c0-1.468,1.09-2.26,2.116-2.26
		c0.608,0,1.17,0.251,1.669,0.748l0.241,0.239c0.121,0.013,0.286,0.022,0.504,0.022c1.421,0,3.644-0.11,6.61-0.328
		c0.317-0.201,0.663-0.382,1.035-0.541l0.675-0.29l0.703,0.217c1.061,0.328,1.892,0.75,2.539,1.291
		c0.972,0.759,1.119,1.651,1.119,2.12c0,0.697-0.349,1.399-1.025,1.796c0.224,0.161,0.423,0.306,0.598,0.437l0.356-0.033
		l-0.097,0.229c0.058,0.044,0.112,0.087,0.163,0.127c0.815,0.654,1.224,1.399,1.224,2.222c0,0.925-0.548,1.907-1.731,2.257
		c-3.008,5.824-7.4,9.999-13.07,12.418L21.787,61.422z M29.22,43.818c-0.585,0.039-1.222,0.095-1.909,0.168
		C27.91,43.935,28.547,43.879,29.22,43.818z"/>
</g>
<g>
	<g>
		<path d="M27,9.649c-0.25,3.436-1.094,6.123-2.53,8.058c2.998,1.063,4.497,2.249,4.497,3.561c0,0.562-0.22,0.843-0.656,0.843
			c-0.25,0-0.468-0.188-0.656-0.562c-0.625-1.437-1.75-2.624-3.373-3.561c-2,2.624-4.654,4.498-7.964,5.622
			c-0.313,0-0.375-0.126-0.187-0.375c5.934-2.624,9.15-7.152,9.65-13.586h-8.62V9.087h8.714V2.81l1.593,0.281
			c0.499,0.313,0.375,0.531-0.375,0.656v5.341h7.402l1.405-1.406l1.78,1.312c0.375,0.313,0.375,0.531,0,0.656h-9.838
			c1.436,6.31,4.872,10.37,10.306,12.18c-0.875,0.312-1.499,0.75-1.874,1.312c-5.247-2.748-8.245-7.246-8.995-13.492H27z"/>
		<path d="M16.401,24.11h-0.083c-0.45,0-0.645-0.202-0.729-0.371c-0.084-0.169-0.128-0.446,0.143-0.805l0.078-0.104l0.119-0.053
			c5.638-2.492,8.686-6.627,9.305-12.628h-8.573V8.587h8.714V2.213l2.359,0.454c0.411,0.258,0.586,0.554,0.521,0.878
			c-0.068,0.342-0.375,0.511-0.662,0.601v4.44h6.695l1.563-1.563l2.127,1.567c0.156,0.129,0.56,0.467,0.472,0.928
			c-0.037,0.195-0.173,0.458-0.611,0.604l-0.158,0.025h-9.203c1.47,5.753,4.774,9.521,9.83,11.206l1.376,0.458l-1.366,0.487
			c-0.766,0.273-1.313,0.649-1.626,1.118l-0.25,0.375l-0.398-0.209c-4.678-2.45-7.644-6.302-8.841-11.471
			c-0.375,2.122-1.029,3.912-1.955,5.348c2.838,1.098,4.22,2.346,4.22,3.806c0,1.247-0.885,1.343-1.156,1.343
			c-0.312,0-0.756-0.146-1.103-0.838c-0.541-1.241-1.48-2.285-2.806-3.127c-2.021,2.509-4.685,4.338-7.924,5.438L16.401,24.11z
			 M28.933,14.354c1.367,3.526,3.779,6.256,7.209,8.148c0.206-0.226,0.45-0.43,0.734-0.612
			C33.311,20.425,30.653,17.901,28.933,14.354z M26.703,19.235c0.604,0.637,1.076,1.343,1.412,2.114
			c0.114,0.227,0.201,0.262,0.202,0.262c0.079,0,0.151,0,0.151-0.344C28.467,20.585,27.865,19.897,26.703,19.235z M26.288,9.587
			L26.28,9.688c-0.292,3.757-1.502,6.902-3.612,9.411c0.353-0.363,0.688-0.744,1.006-1.143l-0.009-0.003l0.403-0.543
			c1.372-1.849,2.19-4.472,2.433-7.796l0.034-0.464h0.058V3.444l-0.218-0.038v6.182H26.288z M35.141,9.149h1.91l-1.1-0.81
			L35.141,9.149z"/>
	</g>
	<g>
		<path d="M34.776,28.868c-1.874,1.937-4.249,3.717-7.121,5.34c1.124,1,1.687,2,1.687,2.998c0,0.688-0.157,1.031-0.469,1.031
			c-0.313,0-0.531-0.155-0.656-0.468c-0.438-1.062-1.218-2.155-2.342-3.279c-0.813-0.811-1.968-1.593-3.467-2.342
			c-0.188-0.125-0.126-0.218,0.188-0.281c1.936,0.562,3.467,1.218,4.591,1.968c2.561-1.748,4.685-3.654,6.372-5.716
			c0.187-0.249,0.062-0.405-0.375-0.468c-4.497,0.25-8.402,0.782-11.712,1.593c-0.875,0.25-1.562,0.469-2.061,0.656
			c-0.188,0.375-0.375,0.563-0.563,0.563c-0.187,0-0.594-0.312-1.218-0.937c-0.562-0.563-0.843-1.092-0.843-1.593
			c0-0.312,0.125-0.343,0.375-0.094c0.188,0.5,0.593,0.75,1.218,0.75c0.874,0,1.654-0.062,2.342-0.188
			c3.498-0.624,7.777-1.092,12.836-1.405c0.312-0.188,0.593-0.437,0.843-0.75c0.312,0.187,0.811,0.562,1.499,1.124
			c0.436,0.375,0.656,0.656,0.656,0.843c0,0.188-0.25,0.281-0.75,0.281C35.37,28.493,35.025,28.619,34.776,28.868z"/>
		<path d="M28.874,38.737c-0.521,0-0.919-0.278-1.12-0.783c-0.409-0.992-1.16-2.04-2.231-3.111
			c-0.773-0.771-1.896-1.528-3.337-2.249c-0.41-0.268-0.395-0.565-0.372-0.683c0.082-0.415,0.535-0.506,0.684-0.536l0.12-0.024
			l0.118,0.034c1.819,0.528,3.311,1.149,4.441,1.847c2.242-1.56,4.155-3.265,5.696-5.075c-4.25,0.258-8.077,0.784-11.283,1.57
			c-0.744,0.213-1.362,0.407-1.829,0.574c-0.155,0.268-0.45,0.659-0.914,0.659c-0.303,0-0.671-0.181-1.572-1.084
			c-0.656-0.657-0.989-1.312-0.989-1.946c0-0.739,0.552-0.76,0.615-0.76c0.265,0,0.466,0.167,0.612,0.312l0.115,0.179
			c0.079,0.21,0.229,0.425,0.75,0.425c0.845,0,1.603-0.061,2.252-0.179c3.475-0.62,7.769-1.092,12.767-1.405
			c0.223-0.149,0.428-0.341,0.612-0.571l0.273-0.341l0.375,0.225c0.333,0.2,0.843,0.581,1.558,1.166
			c0.591,0.508,0.839,0.874,0.839,1.23s-0.217,0.781-1.25,0.781c-0.302,0-0.523,0.075-0.677,0.229c-1.765,1.824-4,3.535-6.648,5.088
			c0.904,0.946,1.361,1.918,1.361,2.896C29.842,38.538,29.235,38.737,28.874,38.737z M25.438,33.436
			c0.291,0.23,0.555,0.464,0.791,0.7c1.166,1.165,1.99,2.323,2.452,3.443c0.037,0.092,0.07,0.131,0.107,0.147
			c0.024-0.077,0.055-0.232,0.055-0.519c0-0.845-0.511-1.728-1.519-2.625L26.91,34.25C26.484,33.966,25.993,33.694,25.438,33.436z
			 M33.876,27.385c0.09,0.07,0.167,0.161,0.217,0.281c0.057,0.138,0.115,0.42-0.135,0.752c-0.831,1.016-1.767,1.996-2.805,2.938
			c1.223-0.907,2.314-1.855,3.264-2.836c0.359-0.359,0.85-0.529,1.425-0.527c-0.067-0.067-0.154-0.148-0.267-0.246
			c-0.445-0.364-0.812-0.648-1.09-0.848C34.295,27.086,34.092,27.249,33.876,27.385z M17.847,29.027
			c0.043,0.047,0.089,0.095,0.137,0.143c0.461,0.462,0.713,0.66,0.837,0.743c0.035-0.046,0.083-0.121,0.142-0.238l0.088-0.176
			l0.184-0.069c0.449-0.168,1.03-0.356,1.77-0.573c-0.065,0.012-0.13,0.023-0.195,0.035c-0.707,0.129-1.525,0.195-2.43,0.195
			C18.19,29.086,18.012,29.066,17.847,29.027z"/>
	</g>
	<g>
		<path d="M32.528,46.305c-6.809,0.625-10.4,1.063-10.775,1.312c-0.25,0.25-0.501,0.375-0.75,0.375c-0.25,0-0.688-0.281-1.312-0.843
			c-0.562-0.499-0.843-0.999-0.843-1.499c0-0.312,0.125-0.343,0.375-0.094c0.312,0.562,0.874,0.843,1.687,0.843
			c1.561,0,5.309-0.281,11.243-0.843c0.375-0.125,0.687-0.342,0.937-0.656c0.624,0.438,1.092,0.782,1.406,1.031
			c0.312,0.25,0.468,0.468,0.468,0.656c0,0.313-0.344,0.438-1.031,0.375c-2.811,5.935-6.996,10.088-12.555,12.461
			c-0.375,0-0.468-0.125-0.281-0.375C26.281,56.3,30.092,52.053,32.528,46.305z M30.373,40.965c0.312-0.249,0.687-0.469,1.124-0.656
			c0.811,0.25,1.436,0.563,1.874,0.937c0.249,0.188,0.375,0.375,0.375,0.563c0,0.125-0.25,0.156-0.75,0.094
			c-1.75-0.312-4.904-0.125-9.463,0.562c-0.375,0.313-0.656,0.468-0.843,0.468c-0.313,0-0.719-0.218-1.218-0.656
			c-0.625-0.562-0.937-1.125-0.937-1.687c0-0.312,0.125-0.343,0.375-0.094c0.125,0.563,0.843,0.843,2.155,0.843
			C24.625,41.339,27.061,41.215,30.373,40.965z"/>
		<path d="M21.48,59.922h-0.102c-0.409,0-0.681-0.131-0.81-0.389c-0.084-0.168-0.13-0.442,0.129-0.787l0.165-0.141
			c4.822-2.556,8.474-6.499,10.865-11.725c-7.515,0.7-9.318,1.019-9.687,1.152c-0.327,0.304-0.676,0.458-1.038,0.458
			c-0.398,0-0.891-0.291-1.647-0.972c-0.668-0.594-1.008-1.224-1.008-1.871c0-0.739,0.553-0.76,0.616-0.76
			c0.265,0,0.466,0.167,0.612,0.312l0.084,0.112c0.14,0.251,0.421,0.586,1.25,0.586c1.531,0,5.277-0.281,11.136-0.835
			c0.261-0.096,0.476-0.252,0.653-0.475l0.293-0.368l0.385,0.27c0.634,0.445,1.111,0.795,1.43,1.048
			c0.283,0.228,0.657,0.582,0.657,1.047c0,0.209-0.087,0.89-1.214,0.89c-0.003,0-0.007,0-0.01,0
			c-2.851,5.862-7.111,10.034-12.666,12.406L21.48,59.922z M33.314,45.731l-0.326,0.77c-1.476,3.482-3.47,6.444-5.959,8.859
			c2.641-2.244,4.8-5.123,6.453-8.613l0.149-0.316l0.348,0.032c0.146,0.014,0.283,0.018,0.376,0.011
			c-0.042-0.041-0.097-0.092-0.173-0.153c-0.245-0.195-0.589-0.451-1.032-0.765c-0.092,0.08-0.19,0.152-0.293,0.217L33.314,45.731z
			 M20.03,46.781c0.725,0.652,0.964,0.708,0.989,0.712c0.123-0.001,0.276-0.125,0.381-0.229c0.155-0.109,0.342-0.237,1.798-0.457
			C21.557,46.908,20.67,46.971,20.03,46.781z M22.69,43.432c-0.449,0-0.941-0.248-1.548-0.78c-0.736-0.662-1.107-1.354-1.107-2.063
			c0-0.739,0.553-0.76,0.616-0.76c0.265,0,0.466,0.167,0.612,0.312l0.104,0.103l0.032,0.144c0.048,0.218,0.511,0.451,1.667,0.451
			c1.521,0,3.917-0.122,7.122-0.362c0.321-0.238,0.695-0.449,1.114-0.628l0.169-0.072l0.175,0.054
			c0.886,0.273,1.557,0.612,2.051,1.035c0.357,0.267,0.55,0.591,0.55,0.942c0,0.146-0.06,0.625-0.833,0.625
			c-0.127,0-0.287-0.011-0.479-0.035c-1.742-0.309-4.792-0.117-9.191,0.54C23.314,43.279,22.985,43.432,22.69,43.432z
			 M21.563,41.667c0.074,0.079,0.155,0.158,0.244,0.238c0.532,0.466,0.793,0.523,0.874,0.527c0.03-0.008,0.183-0.059,0.533-0.352
			l0.107-0.09l0.138-0.021c0.372-0.056,0.735-0.108,1.09-0.158c-0.561,0.019-1.056,0.028-1.484,0.028
			C22.76,41.839,22.133,41.839,21.563,41.667z M30.945,41.256c0.646,0,1.218,0.03,1.707,0.09c-0.312-0.19-0.687-0.356-1.125-0.502
			c-0.265,0.124-0.503,0.262-0.711,0.413C30.859,41.256,30.903,41.256,30.945,41.256z"/>
	</g>
</g>
</svg>
